custom-analysis
version=1
nRows=4
nColumns=98
inDegrees=no

This file contains tibia displacement and acting force.

Units are S.I. units (seconds, meters, Newtons, ...)
Angles are in degrees.

endheader
time	APT	SIT	knee_angle	aACL_R_force	pACL_R_force	aPCL_R_force	pPCL_R_force	aMCL_R_force	mMCL_R_force	pMCL_R_force	aLCL_R_force	mLCL_R_force	pLCL_R_force	aPCL_L_force	pPCL_L_force	aMCL_L_force	aLCL_L_force	aACL_R_length	pACL_R_length	aPCL_R_length	pPCL_R_length	aMCL_R_length	mMCL_R_length	pMCL_R_length	aLCL_R_length	mLCL_R_length	pLCL_R_length	aPCL_L_length	pPCL_L_length	aMCL_L_length	aLCL_L_length	aACL_R_strain	pACL_R_strain	aPCL_R_strain	pPCL_R_strain	aMCL_R_strain	mMCL_R_strain	pMCL_R_strain	aLCL_R_strain	mLCL_R_strain	pLCL_R_strain	aPCL_L_strain	pPCL_L_strain	aMCL_L_strain	aLCL_L_strain	femur_lat_meniscii_r.femur_lat_r.force.X	femur_lat_meniscii_r.femur_lat_r.force.Y	femur_lat_meniscii_r.femur_lat_r.force.Z	femur_lat_meniscii_r.femur_lat_r.torque.X	femur_lat_meniscii_r.femur_lat_r.torque.Y	femur_lat_meniscii_r.femur_lat_r.torque.Z	femur_lat_meniscii_r.meniscus_lat_r.force.X	femur_lat_meniscii_r.meniscus_lat_r.force.Y	femur_lat_meniscii_r.meniscus_lat_r.force.Z	femur_lat_meniscii_r.meniscus_lat_r.torque.X	femur_lat_meniscii_r.meniscus_lat_r.torque.Y	femur_lat_meniscii_r.meniscus_lat_r.torque.Z	femur_med_meniscii_r.femur_med_r.force.X	femur_med_meniscii_r.femur_med_r.force.Y	femur_med_meniscii_r.femur_med_r.force.Z	femur_med_meniscii_r.femur_med_r.torque.X	femur_med_meniscii_r.femur_med_r.torque.Y	femur_med_meniscii_r.femur_med_r.torque.Z	femur_med_meniscii_r.meniscus_med_r.force.X	femur_med_meniscii_r.meniscus_med_r.force.Y	femur_med_meniscii_r.meniscus_med_r.force.Z	femur_med_meniscii_r.meniscus_med_r.torque.X	femur_med_meniscii_r.meniscus_med_r.torque.Y	femur_med_meniscii_r.meniscus_med_r.torque.Z	femur_med_tibia_r.tibia_upper_r.force.X	femur_med_tibia_r.tibia_upper_r.force.Y	femur_med_tibia_r.tibia_upper_r.force.Z	femur_med_tibia_r.tibia_upper_r.torque.X	femur_med_tibia_r.tibia_upper_r.torque.Y	femur_med_tibia_r.tibia_upper_r.torque.Z	femur_med_tibia_r.femur_med_r.force.X	femur_med_tibia_r.femur_med_r.force.Y	femur_med_tibia_r.femur_med_r.force.Z	femur_med_tibia_r.femur_med_r.torque.X	femur_med_tibia_r.femur_med_r.torque.Y	femur_med_tibia_r.femur_med_r.torque.Z	femur_lat_tibia_r.tibia_upper_r.force.X	femur_lat_tibia_r.tibia_upper_r.force.Y	femur_lat_tibia_r.tibia_upper_r.force.Z	femur_lat_tibia_r.tibia_upper_r.torque.X	femur_lat_tibia_r.tibia_upper_r.torque.Y	femur_lat_tibia_r.tibia_upper_r.torque.Z	femur_lat_tibia_r.femur_lat_r.force.X	femur_lat_tibia_r.femur_lat_r.force.Y	femur_lat_tibia_r.femur_lat_r.force.Z	femur_lat_tibia_r.femur_lat_r.torque.X	femur_lat_tibia_r.femur_lat_r.torque.Y	femur_lat_tibia_r.femur_lat_r.torque.Z	femur_lat_meniscii_force_r	femur_med_meniscii_force_r	femur_lat_tibia_force_r	femur_med_tibia_force_r
      0.11103628	      0.00863111	      0.00796513	     29.58300606	     10.04839295	    -13.01099262	      0.00000000	     61.11823509	      0.00000000	      0.00000000	    -37.27757552	      0.00000000	      0.00000000	      0.00000000	      0.00000000	      0.00000000	      0.00000001	      0.00000000	      0.03258915	      0.02547075	      0.03106461	      0.03021328	      0.05738118	      0.05955826	      0.05875244	      0.05325316	      0.05013156	      0.04649921	      0.01525851	      0.01651186	      0.06550154	      0.04489616	      0.05107637	      0.01644323	     -0.00098708	      0.01088993	     -0.04407716	     -0.00393418	      0.00041623	     -0.04866335	     -0.10985784	     -0.11163901	      0.00000079	     -0.32847694	      0.00000060	     -0.00000086	     36.35478119	    238.25863577	     35.40098033	    -20.30671715	      0.93978177	     13.99608960	    -36.35478119	   -238.25863577	    -35.40098033	      7.25313022	     -1.38964006	      2.43687107	    -22.86875258	     48.18195313	      6.51210779	     -1.53632435	      0.52589261	     -9.36669449	     22.86875258	    -48.18195313	     -6.51210779	     -0.85610054	     -0.54877822	      1.13447519	    -98.47024438	   -514.10118247	    119.56387513	    -12.26931295	      2.54432308	      0.84156775	     98.47024438	    514.10118247	   -119.56387513	     59.02798291	     -1.47312265	     42.27382190	    -43.42130748	   -167.82281585	    -42.78860615	      5.70341948	     -1.58971726	      0.44897915	     43.42130748	    167.82281585	     42.78860615	    -21.72446427	      1.04703422	     17.93744143	    243.60229277	     53.72976828	    178.55187560	    536.92824016
      0.11188953	      0.00869660	      0.00808754	     29.97820298	      9.38469627	    -13.44710290	     26.16815103	     59.37885036	      0.00000000	      0.00000000	      0.00000000	      0.00000000	      0.00000000	      0.00000000	      0.00000000	      0.00000000	      0.00000001	      0.00000000	      0.03256846	      0.02543906	      0.03112799	      0.03025436	      0.05741356	      0.05955239	      0.05870734	      0.05324446	      0.05009753	      0.04644074	      0.01525851	      0.01651186	      0.06550154	      0.04489616	      0.05040906	      0.01517868	      0.00105137	      0.01226463	     -0.04353776	     -0.00403244	     -0.00035175	     -0.04881875	     -0.11046200	     -0.11275610	      0.00000079	     -0.32847694	      0.00000060	     -0.00000086	     39.82157772	    247.19607231	     34.50864491	    -20.15493403	      1.01721100	     15.38990216	    -39.82157772	   -247.19607231	    -34.50864491	      7.45311478	     -1.46821819	      2.49818620	    -21.80256155	     48.71811425	      6.78414062	     -1.63325933	      0.50242060	     -8.92154369	     21.80256155	    -48.71811425	     -6.78414062	     -0.86358103	     -0.53193562	      1.10926460	   -106.25474465	   -519.34157456	    120.19909000	    -12.37718590	      2.69238245	      0.69354660	    106.25474465	    519.34157456	   -120.19909000	     59.37511624	     -1.61043990	     45.52686018	    -43.50209510	   -164.95467639	    -41.39703619	      5.56842610	     -1.58222759	      0.45359208	     43.50209510	    164.95467639	     41.39703619	    -21.06836934	      1.04971384	     17.95643693	    252.74988188	     53.80363287	    175.54541335	    543.55640283
      0.11274278	      0.00876685	      0.00821435	     30.37590246	      9.12489848	    -13.45852117	     24.91526595	     57.69953622	      0.00000000	      0.00000000	      0.00000000	      0.00000000	      0.00000000	      0.00000000	      0.00000000	      0.00000000	      0.00000001	      0.00000000	      0.03254745	      0.02540712	      0.03118681	      0.03029036	      0.05744287	      0.05954298	      0.05865875	      0.05323231	      0.05005984	      0.04637844	      0.01525851	      0.01651186	      0.06550154	      0.04489616	      0.04973147	      0.01390408	      0.00294278	      0.01346905	     -0.04304953	     -0.00418973	     -0.00117914	     -0.04903586	     -0.11113136	     -0.11394641	      0.00000079	     -0.32847694	      0.00000060	     -0.00000086	     42.67343168	    251.27171493	     32.50702556	    -19.40368885	      1.07028183	     16.53305733	    -42.67343168	   -251.27171493	    -32.50702556	      7.46845469	     -1.50902333	      2.52622961	    -20.09461447	     49.37562853	      7.01712900	     -1.71159471	      0.46329486	     -8.20006785	     20.09461447	    -49.37562853	     -7.01712900	     -0.87438802	     -0.50027569	      1.05492706	   -117.45272561	   -537.55191655	    125.74100746	    -12.87413771	      2.94017454	      0.54966507	    117.45272561	    537.55191655	   -125.74100746	     62.01447206	     -1.79958093	     50.22767970	    -45.34678100	   -165.18162081	    -41.43130581	      5.56319967	     -1.63448180	      0.42711462	     45.34678100	    165.18162081	     41.43130581	    -21.08052511	      1.09310189	     18.71509568	    256.93423907	     53.76789305	    176.23237926	    564.41829054
      0.11359602	      0.00884171	      0.00834261	     30.77610901	      9.52307320	    -12.83126981	     25.77495837	     60.59510314	      0.00000000	      0.00000000	      0.00000000	      0.00000000	      0.00000000	      0.00000000	      0.00000000	      0.00000000	      0.00000001	      0.00000000	      0.03252785	      0.02537654	      0.03124387	      0.03032410	      0.05747212	      0.05953306	      0.05860970	      0.05321992	      0.05002171	      0.04631557	      0.01525851	      0.01651186	      0.06550154	      0.04489616	      0.04909936	      0.01268384	      0.00477785	      0.01459788	     -0.04256218	     -0.00435559	     -0.00201437	     -0.04925719	     -0.11180834	     -0.11514747	      0.00000079	     -0.32847694	      0.00000060	     -0.00000086	     41.80101769	    246.75066903	     32.72481390	    -19.38735055	      1.03905980	     16.16056539	    -41.80101769	   -246.75066903	    -32.72481390	      7.35340835	     -1.48233228	      2.55333210	    -18.07633551	     47.44507617	      7.46373899	     -1.94208522	      0.41458933	     -7.36869580	     18.07633551	    -47.44507617	     -7.46373899	     -0.81974611	     -0.46198662	      0.98114369	   -128.17385512	   -549.96225624	    128.87924379	    -13.18322456	      3.16393975	      0.38759876	    128.17385512	    549.96225624	   -128.87924379	     63.53598403	     -1.98771103	     54.70885034	    -46.60686323	   -164.53620774	    -41.19979053	      5.52761210	     -1.66934214	      0.41066198	     46.60686323	    164.53620774	     41.19979053	    -20.96227137	      1.12298064	     19.23160541	    252.39677334	     51.31760476	    175.90277456	    579.22092495
